<?xml version="1.0" encoding="UTF-8" standalone="no"?>
<!-- Created with Inkscape (http://www.inkscape.org/) -->

<svg
   xmlns:dc="http://purl.org/dc/elements/1.1/"
   xmlns:cc="http://creativecommons.org/ns#"
   xmlns:rdf="http://www.w3.org/1999/02/22-rdf-syntax-ns#"
   xmlns:svg="http://www.w3.org/2000/svg"
   xmlns="http://www.w3.org/2000/svg"
   xmlns:sodipodi="http://sodipodi.sourceforge.net/DTD/sodipodi-0.dtd"
   xmlns:inkscape="http://www.inkscape.org/namespaces/inkscape"
   sodipodi:docname="Faraglioni_silhouette.svg"
   inkscape:version="0.48.1 "
   id="svg2"
   height="550"
   width="550"
   version="1.1">
  <sodipodi:namedview
     pagecolor="#ffffff"
     bordercolor="#666666"
     borderopacity="1"
     objecttolerance="10"
     gridtolerance="10"
     guidetolerance="10"
     inkscape:pageopacity="0"
     inkscape:pageshadow="2"
     inkscape:window-width="1280"
     inkscape:window-height="738"
     id="namedview6"
     showgrid="false"
     inkscape:zoom="0.865"
     inkscape:cx="300"
     inkscape:cy="300"
     inkscape:window-x="-8"
     inkscape:window-y="-8"
     inkscape:window-maximized="1"
     inkscape:current-layer="svg2" />
  <metadata
     id="metadata8">
    <rdf:RDF>
      <cc:Work
         rdf:about="">
        <dc:format>image/svg+xml</dc:format>
        <dc:type
           rdf:resource="http://purl.org/dc/dcmitype/StillImage" />
        <dc:title />
      </cc:Work>
    </rdf:RDF>
  </metadata>
  <defs
     id="defs6">
    <filter
       inkscape:collect="always"
       id="filter3921"
       color-interpolation-filters="sRGB">
      <feGaussianBlur
         inkscape:collect="always"
         stdDeviation="3.0231216"
         id="feGaussianBlur3923" />
    </filter>
  </defs>
  <g
     id="g3839"
     transform="matrix(1.0770518,0,0,1.1215336,-49.879145,43.561061)">
    <path
       id="path3032"
       d="m 228.84375,140.53125 c -0.34696,0.06 -0.65859,0.23838 -1.09375,0.53125 -0.69884,0.47033 -1.253,1.10183 -1.25,1.375 0.003,0.27318 -0.74251,1.01969 -1.65625,1.6875 -1.63394,1.19414 -1.72585,1.22587 -4.65625,0.34375 -1.63878,-0.49331 -3.09015,-1.12337 -3.25,-1.375 -0.15984,-0.25167 -1.83578,-0.3881 -3.71875,-0.3125 -2.90846,0.11676 -3.62413,-0.0602 -4.78125,-1.125 -1.14616,-1.05474 -1.76595,-1.20065 -3.78125,-0.90625 -1.3172,0.19242 -3.41433,0.3596 -4.65625,0.375 -3.5063,0.0433 -8.32926,3.54649 -9.625,6.96875 -0.54372,1.43608 -0.88936,2.73904 -0.75,2.875 0.13937,0.13598 -0.42049,0.98299 -1.28125,1.90625 -0.86076,0.92327 -1.73254,2.56415 -1.9375,3.65625 -0.20495,1.0921 -0.42035,2.18019 -0.46875,2.40625 -0.0483,0.22606 -0.12535,0.86171 -0.15625,1.40625 -0.0308,0.54454 -0.74504,1.73076 -1.59375,2.625 -0.84872,0.89424 -2.29123,2.9914 -3.21875,4.65625 -1.89019,3.39275 -3.52413,5.491 -4.21875,5.5 -0.66039,0.008 -2.09247,-2.30816 -1.9375,-3.125 0.0715,-0.37665 -0.12376,-0.66025 -0.4375,-0.65625 -0.31375,0.004 -0.58875,0.31167 -0.59375,0.6875 -0.005,0.37583 -0.49811,0.006 -1.125,-0.8125 -1.55263,-2.02831 -3.56522,-1.96845 -4.75,0.15625 -0.49763,0.89241 -1.46628,1.89403 -2.15625,2.21875 -1.62498,0.76476 -1.7382,0.76723 -1.75,-0.1875 -0.0167,-1.35557 -3.32276,-4.58984 -5.15625,-5.03125 -3.33753,-0.80353 -11.29645,0.20905 -11.28125,1.4375 0.005,0.41213 -0.36164,0.77525 -0.8125,0.78125 -0.45086,0.006 -0.8155,0.20012 -0.8125,0.46875 0.003,0.2831 -0.95781,0.31149 -2.28125,0.0312 -1.38049,-0.29231 -2.40412,-0.30532 -2.59375,0 -0.17245,0.27763 -1.11951,0.71351 -2.09375,0.9375 -1.11165,0.25558 -1.757,0.72546 -1.75,1.28125 0.008,0.68881 -0.13989,0.75376 -0.65625,0.25 -0.97535,-0.95156 -1.54655,-0.80124 -1.53125,0.4375 0.0102,0.82599 -0.36434,1.1046 -1.5,1.125 -1.07191,0.0192 -1.26174,0.16542 -0.71875,0.5 0.5895,0.36323 0.44145,0.55483 -0.5625,0.90625 -0.71303,0.24959 -1.70922,0.41105 -2.21875,0.34375 -0.50953,-0.0673 -1.31917,0.50767 -1.8125,1.28125 -0.60344,0.94626 -1.39057,1.4249 -2.40625,1.4375 -1.95315,0.0241 -2.65034,0.94067 -3.03125,4 -0.28255,2.26941 -0.50196,2.55573 -2.4375,3.34375 -1.16715,0.47518 -2.0616,1.06641 -2,1.3125 0.4345,1.73454 -1.56269,9.05534 -2.65625,9.75 -0.47249,0.30014 -0.83438,1.40196 -2.71875,7.96875 -0.38956,1.35758 -1.13502,2.85553 -1.625,3.3125 -0.6009,0.56043 -1.05633,2.44914 -1.40625,5.84375 -0.4828,4.68373 -0.64437,5.17298 -2.375,6.875 -1.02276,1.00586 -2.0334,2.44437 -2.25,3.1875 -0.21661,0.74314 -2.13918,3.1579 -4.28125,5.375 -3.46635,3.58777 -3.99025,4.43154 -4.8125,7.625 -0.64499,2.50497 -0.81048,4.4212 -0.53125,6.34375 0.26073,1.79516 0.1878,3.02889 -0.21875,3.53125 -0.34304,0.42385 -0.49363,1.13862 -0.3125,1.59375 0.18112,0.45513 0.1023,1.45849 -0.1875,2.25 -0.37926,1.03583 -0.27139,2.3415 0.34375,4.625 1.4843,5.50992 1.76523,9.96504 0.78125,12 -0.47694,0.98635 -0.85075,2.21278 -0.84375,2.75 0.0066,0.53722 -0.26949,1.16902 -0.59375,1.375 -0.32428,0.20598 -0.44542,0.83996 -0.28125,1.4375 0.16417,0.59754 0.06779,1.74867 -0.21875,2.53125 -0.28652,0.78258 -0.52425,3.11506 -0.53125,5.1875 -0.0088,2.60209 -0.24645,3.8621 -0.75,4.0625 -0.40107,0.15961 -0.72175,0.49635 -0.71875,0.78125 0.01015,0.82248 -2.07088,5.30426 -2.625,5.65625 -0.27616,0.17542 -1.38585,-0.19146 -2.46875,-0.8125 -1.0829,-0.62103 -1.97175,-0.93553 -1.96875,-0.71875 0.0027,0.21678 -0.34601,0.10224 -0.78125,-0.25 -1.00274,-0.8115 -8.499,-0.0655 -8.5,0.84375 -4.4e-4,0.33693 -0.23227,0.94009 -0.5,1.375 -0.40263,0.65403 -0.62655,0.67417 -1.34375,0.0937 -0.73269,-0.59296 -1.0402,-0.47963 -1.9375,0.625 -0.58406,0.719 -1.0889,1.67363 -1.125,2.125 -0.03609,0.45137 -0.127,1.79678 -0.1875,3 -0.06051,1.20321 -0.39637,3.29911 -0.75,4.65625 -0.35366,1.35714 -0.48658,3.74047 -0.3125,5.3125 0.17409,1.57203 0.12134,2.99977 -0.125,3.15625 -0.24634,0.15649 -0.75155,1.57286 -1.09375,3.15625 -1.33585,6.18118 -3.19678,11.83316 -4.21875,12.78125 -0.58899,0.54641 -1.0655,1.18614 -1.0625,1.4375 0.0063,0.51123 -3.07478,3.63562 -4.25,4.3125 -0.41715,0.24026 -0.79345,0.90071 -0.84375,1.46875 -0.12345,1.39315 -0.5011,2.38274 -3.34375,8.46875 -2.06522,4.42157 -2.44165,5.72397 -2.40625,8.5 0.03287,2.59753 -1.359375,8.09375 -1.359375,8.09375 l 131.234375,0 -0.25,-6.84375 -0.21875,-6.6875 2.40625,-3.46875 c 5.23698,-7.50147 7.25969,-9.22318 13.03125,-11.125 2.67785,-0.88238 3.47032,-0.82972 5.96875,0.40625 1.49463,0.7394 2.29582,1.53425 2.53125,2.5625 0.18791,0.82072 1.29845,3.71553 2.5,6.40625 3.15273,7.06014 3.42798,9.8388 1.40625,15.53125 -0.16086,0.45292 -0.31455,2.542 -0.34375,3.21875 l 68.10937,0 c -1.05838,-0.53085 -0.67828,-2.51903 -1.20312,-4.125 -0.42259,-1.2931 -1.12666,-2.6485 -1.5625,-3 -0.61601,-0.49681 -0.76042,-1.65338 -0.59375,-5.1875 0.43708,-9.26817 1.29612,-19.35639 1.8125,-21.21875 0.29274,-1.05577 0.73171,-3.64276 0.96875,-5.75 0.23703,-2.10725 1.09235,-5.70447 1.875,-7.96875 0.78264,-2.26429 1.62416,-5.83009 1.875,-7.9375 0.85535,-7.18619 1.38357,-13.14105 1.78125,-19.4375 0.21852,-3.45979 0.79636,-7.46434 1.25,-8.90625 1.16323,-3.69737 0.47321,-24.52802 -0.875,-26.53125 -0.66672,-0.99064 -0.8668,-2.44407 -0.8125,-6 0.0396,-2.5932 0.0614,-5.21164 0.0312,-5.8125 -0.26236,-5.21279 -0.67247,-7.94235 -1.4375,-9.5625 -0.55023,-1.16522 -1.04236,-4.04712 -1.25,-7.46875 -0.21676,-3.57186 -0.61698,-5.89143 -1.09375,-6.40625 -2.0902,-2.257 -2.45452,-3.10941 -3.125,-7.53125 -0.22499,-1.48375 -0.65879,-2.25789 -1.5625,-2.65625 -0.69856,-0.30794 -1.43007,-1.1683 -1.625,-1.90625 -0.27559,-1.04331 -0.53294,-1.19599 -1.09375,-0.71875 -0.84362,0.71792 -4.1701,-1.96525 -4.1875,-3.375 -0.0197,-1.59338 -0.64735,-2.42485 -1.625,-2.15625 -0.67,0.18407 -1.0579,-0.0933 -1.28125,-0.90625 -0.17954,-0.6535 -0.55447,-1.07015 -0.8125,-0.90625 -0.75603,0.48025 -1.35911,-0.18575 -4.53125,-4.9375 -1.65201,-2.47465 -3.47416,-4.7419 -4.03125,-5.03125 -0.55708,-0.28936 -1.02015,-0.82244 -1.03125,-1.1875 -0.0112,-0.36505 -0.4967,-1.25583 -1.09375,-2 -0.59705,-0.74416 -1.1006,-2.09845 -1.125,-3 -0.0244,-0.90155 -0.54554,-2.69709 -1.15625,-4 -0.61072,-1.30292 -1.116,-2.93484 -1.125,-3.625 -0.0278,-2.25029 -4.458,-6.75976 -8.1875,-8.34375 -0.6877,-0.29208 -1.39893,-0.97182 -1.59375,-1.5 -0.19482,-0.5282 -0.68433,-1.33499 -1.0625,-1.78125 -0.37819,-0.44625 -0.8303,-1.79963 -1,-3 -0.98789,-6.98762 -1.65744,-10.30915 -2.21875,-10.96875 -0.34854,-0.40956 -1.75781,-1.2278 -3.125,-1.8125 -1.41889,-0.60681 -2.07798,-0.85005 -2.65625,-0.75 z"
       style="fill:#012653;fill-opacity:1"
       inkscape:connector-curvature="0"
       sodipodi:nodetypes="cscsscssscscssccsscsccssscscccscscsscsscscsscsssssssssccsssccscsccsscscssscscscsscscsccccccsssssccsssssssssssccssscssssscsccscscsccscssc" />
    <path
       id="path3032-7"
       d="m 428.1875,54.781251 c -0.19048,-0.0032 -0.34626,0.119235 -0.5,0.375 -0.21885,0.36409 -1.35124,0.77256 -2.53125,0.90625 -2.8306,0.3207 -5.25949,0.94182 -6.03125,1.5625 -0.75492,0.60712 -3.5877,1.515 -6.1875,1.96875 -1.04989,0.18324 -2.27268,0.66885 -2.71875,1.0625 -1.39136,1.22789 -2.8826,1.41323 -5.4375,0.6875 -2.19599,-0.62378 -2.74493,-0.60415 -4.8125,0.3125 -2.25925,1.00163 -5.22766,0.98782 -5.875,-0.03125 -0.32088,-0.50513 -1.20031,-0.24947 -4.34375,1.25 -1.19686,0.57092 -2.70844,0.90779 -3.34375,0.75 -2.27125,-0.56408 -7.1472,5.74626 -8.78125,11.375 -0.61073,2.10375 -1.32387,3.84075 -1.59375,3.84375 -0.26987,0.0033 -0.57435,0.44127 -0.6875,0.96875 -0.14334,0.66819 -0.53358,0.26548 -1.28125,-1.34375 -1.26762,-2.72837 -1.63129,-2.82458 -2.6875,-0.71875 -0.43678,0.87082 -1.16522,1.72327 -1.625,1.90625 -0.45979,0.18298 -0.8185,0.71228 -0.8125,1.1875 0.0179,1.45066 -1.57981,4.114 -2.46875,4.125 -0.4609,0.0057 -0.69704,0.23898 -0.53125,0.5 0.16581,0.26102 -0.38777,1.41629 -1.21875,2.59375 -0.83098,1.17746 -1.66911,2.85333 -1.875,3.71875 -0.20589,0.86543 -1.05468,2.28338 -1.90625,3.15625 -0.85158,0.87287 -1.72434,2.30754 -1.90625,3.1875 -0.45757,2.213409 -1.80093,2.626189 -3.21875,0.96875 -2.34988,-2.74704 -6.5968,-1.548708 -7.15625,2.031249 -0.56922,3.64236 -2.85505,7.41032 -4.21875,6.90625 -0.62329,-0.23039 -0.85485,0.006 -0.84375,0.90625 0.008,0.68188 -0.21728,1.49145 -0.5,1.78125 -0.32558,0.33368 -0.30911,1.94825 0.0625,4.40625 0.46369,3.06703 0.41875,4.38037 -0.1875,6.28125 -0.42194,1.32299 -0.90878,3.88152 -1.09375,5.6875 -0.24603,2.4022 -0.70304,3.67072 -1.6875,4.75 -0.74012,0.8114 -1.16592,1.72087 -0.96875,2.03125 0.42281,0.66561 -0.23025,1.90826 -3.3125,6.3125 -1.25547,1.79395 -2.255,3.57813 -2.25,4 0.005,0.42187 -0.21371,1.22486 -0.46875,1.75 -1.69748,3.49521 -2.81565,6.66381 -3.53125,10 -0.45304,2.1121 -1.13816,4.15441 -1.5,4.53125 -0.8481,0.88326 -2.88136,5.3004 -3.5,7.5625 -0.4153,1.51854 -0.34058,1.79921 0.59375,2.03125 1.47225,0.36565 1.9321,2.47357 1.125,5.21875 -0.36895,1.25495 -0.6805,5.454 -0.6875,9.3125 -0.007,4.19114 -0.25395,7.15366 -0.59375,7.375 -0.31283,0.20377 -0.71393,1.41085 -0.90625,2.65625 -0.19233,1.2454 -0.85851,2.7973 -1.46875,3.46875 -1.48557,1.63458 -2.545,5.5754 -2.5,9.21875 0.0202,1.6375 -0.35597,4.72204 -0.8125,6.875 -1.03947,4.90214 -1.38082,5.85315 -4,11.0625 -0.80196,1.59505 -1.06395,3.04073 -0.9375,5.21875 0.0959,1.65221 0.158,3.62305 0.125,4.375 -0.033,0.75195 -0.1121,4.79044 -0.1875,9 -0.13919,7.7704 -0.29519,9.62146 -1,12.9375 -0.21679,1.01998 -0.39725,3.32119 -0.40625,5.125 -0.009,1.80381 -0.46905,4.95917 -1.03125,7 -0.8241,2.99151 -0.91533,4.0126 -0.40625,5.3125 0.44125,1.12669 0.48842,2.72263 0.15625,5.3125 -0.26144,2.03843 -0.54292,5.06396 -0.65625,6.71875 -0.11332,1.65479 -0.73305,8.44139 -1.34375,15.0625 -0.93874,10.17744 -1.0531,14.54708 -0.78125,28.40625 0.32282,16.45653 0.0589,20.9639 -1.5,25.3125 -0.46248,1.29004 0.4375,2.90625 0.4375,2.90625 l 244.25,0 c 0.13172,-2.86727 0.70695,-5.03092 -1.03125,-7.3125 -0.0277,0.1631 -0.42487,-1.48286 -0.3125,-3.125 0.13253,-1.93739 0.0114,-3.005 -0.375,-3 -1.20713,0.0149 -1.7001,-2.91626 -2.03125,-12.65625 -0.3036,-8.92974 -0.45619,-10.28167 -1.59375,-12.6875 -0.69874,-1.4777 -1.51705,-4.62517 -1.8125,-7 -0.2954,-2.37483 -1.01311,-5.45494 -1.59375,-6.84375 -0.58063,-1.3888 -1.37147,-4.80906 -1.75,-7.625 -0.37848,-2.81594 -0.88637,-5.54167 -1.15625,-6.03125 -0.28508,-0.51667 -0.31217,-2.01119 -0.0312,-3.59375 0.58047,-3.27063 0.10209,-11.66793 -0.71875,-12.46875 -0.32115,-0.31333 -0.58875,-0.89052 -0.59375,-1.28125 -0.005,-0.39075 -0.51643,-1.18752 -1.125,-1.78125 -0.60856,-0.59371 -1.118,-1.53746 -1.125,-2.09375 -0.0203,-1.64432 -1.19462,-4.45975 -1.875,-4.46875 -0.3464,-0.005 -1.42256,-0.68545 -2.375,-1.53125 -1.85849,-1.65031 -1.9905,-2.1591 -3,-11.21875 -0.30109,-2.70183 -1.06034,-6.37109 -1.71875,-8.15625 -0.65852,-1.78515 -1.21375,-3.59241 -1.21875,-4 -0.005,-0.40761 -0.38778,-1.08641 -0.84375,-1.53125 -0.45597,-0.44485 -0.95579,-1.47766 -1.125,-2.28125 -0.16926,-0.80358 -0.59149,-2.19617 -0.9375,-3.09375 -0.61048,-1.58334 -0.73706,-2.62287 -1,-8 -0.0739,-1.51263 -0.50428,-2.92339 -1.03125,-3.4375 -0.57088,-0.55702 -0.79689,-1.39106 -0.625,-2.34375 0.40509,-2.24429 -1.6177,-7.20416 -3.625,-8.875 -1.13664,-0.94606 -1.61966,-1.7663 -1.40625,-2.34375 0.17925,-0.48483 0.0515,-1.55503 -0.28125,-2.375 -0.33266,-0.81998 -0.73007,-2.83223 -0.875,-4.46875 -0.14494,-1.63653 -0.68826,-3.58367 -1.21875,-4.34375 -1.97111,-2.8242 -3.84264,-12.56521 -2.5,-13.03125 0.3057,-0.10611 0.5665,-0.42549 0.5625,-0.71875 -0.004,-0.29328 -0.2341,-0.38767 -0.5,-0.21875 -0.65368,0.41523 -1.15071,-3.68603 -0.5,-4.125 0.3171,-0.21392 0.25551,-0.77838 -0.125,-1.46875 -0.33926,-0.61551 -0.6116,-2.00425 -0.625,-3.09375 -0.0145,-1.17558 -0.24208,-1.85979 -0.5625,-1.65625 -0.45755,0.29065 -1.74172,-0.80176 -3.75,-3.21875 -1.17751,-1.41714 -1.29197,-2.13923 -0.6875,-4.625 0.57675,-2.37169 0.54066,-2.84215 -0.34375,-4.15625 -0.65891,-0.97903 -0.96345,-2.34023 -0.90625,-4 0.12655,-3.67398 0.0704,-4.63419 -0.6875,-10.59375 -0.59599,-4.68632 -1.02198,-5.8154 -1.71875,-4.65625 -0.32278,0.53702 -0.4202,0.44492 -0.375,-0.34375 0.0958,-1.67112 -0.68445,-4.0705 -1.3125,-4.0625 -0.30926,0.004 -1.13295,-0.66273 -1.84375,-1.46875 -1.07367,-1.21748 -1.28425,-1.99524 -1.21875,-4.625 0.0433,-1.74099 -0.15917,-3.15925 -0.4375,-3.15625 -0.93111,0.0115 -2.59092,-2.43461 -2.3125,-3.40625 0.15128,-0.52795 0.0396,-0.9415 -0.28125,-0.9375 -0.32083,0.004 -0.618,-0.48685 -0.625,-1.0625 -0.014,-1.13732 -2.8964,-4.08775 -4,-4.09375 -0.37477,-0.002 -0.61215,-0.42197 -0.53125,-0.9375 0.0928,-0.59169 -0.13716,-0.83795 -0.59375,-0.65625 -0.45437,0.18083 -0.96794,-0.39564 -1.40625,-1.5625 -0.38374,-1.02159 -1.2684,-2.42353 -1.96875,-3.125 -0.95229,-0.9538 -1.2444,-1.83303 -1.1875,-3.46875 0.14091,-4.04807 -2.55979,-9.22991 -4.25,-8.15625 -0.25374,0.16116 -0.337,-0.50087 -0.1875,-1.499999 0.23397,-1.56363 0.0725,-1.9271 -1.15625,-2.46875 -0.97443,-0.42953 -1.4261,-1.05018 -1.4375,-1.96875 -0.009,-0.74013 -0.26841,-1.47947 -0.5625,-1.65625 -0.29408,-0.17678 -0.72221,-1.54891 -0.9375,-3.03125 -0.2153,-1.48235 -0.58315,-2.54053 -0.84375,-2.375 -0.26061,0.16555 -0.494,-0.12452 -0.5,-0.625 -0.006,-0.50048 -0.61605,-1.38679 -1.375,-1.96875 -1.03799,-0.79596 -1.29802,-1.385 -1.0625,-2.375 0.19464,-0.81817 -0.14749,-2.23071 -0.90625,-3.75 -0.67128,-1.3441 -1.08953,-2.6951 -0.90625,-3 0.48589,-0.80834 -0.73255,-2.7622 -1.71875,-2.75 -0.47778,0.0059 -1.21766,-0.92549 -1.71875,-2.15625 -0.48711,-1.19645 -1.18983,-2.16025 -1.5625,-2.15625 -0.37269,0.0046 -0.83616,-0.60524 -1.03125,-1.34375 -0.23788,-0.90055 -0.64406,-1.24753 -1.1875,-1.03125 -0.51065,0.20322 -0.8055,0.02218 -0.8125,-0.53125 -0.006,-0.48302 -0.19373,-0.8282 -0.4375,-0.75 -0.24377,0.07816 -1.27145,-0.64363 -2.28125,-1.625 -1.00981,-0.98137 -2.15137,-1.68243 -2.53125,-1.53125 -0.37988,0.15119 -1.15835,-0.05495 -1.71875,-0.46875 -0.56041,-0.4138 -1.80428,-0.753 -2.78125,-0.75 -0.97697,0.0025 -1.77725,-0.23068 -1.78125,-0.53125 -0.004,-0.30058 -0.45897,-0.53825 -1,-0.53125 -0.54103,0.0067 -1.23236,-0.23964 -1.53125,-0.53125 -0.2989,-0.2916 -1.6034,-0.61759 -2.90625,-0.71875 -1.30284,-0.10115 -2.52375,-0.3948 -2.71875,-0.65625 -0.195,-0.26144 -0.73665,-0.47475 -1.1875,-0.46875 -0.52046,0.0064 -0.7792,-0.42053 -0.6875,-1.15625 0.13158,-1.05628 -0.16789,-1.16576 -3.6875,-1.46875 -2.12362,-0.18281 -4.36052,-0.1701 -4.96875,0.03125 -0.60867,0.20148 -1.50438,0.06332 -1.96875,-0.3125 -0.32598,-0.2638 -0.55952,-0.403059 -0.75,-0.40625 z"
       style="fill:#012653;fill-opacity:1"
       inkscape:connector-curvature="0"
       sodipodi:nodetypes="csscscsssssscsssscscsssssssccsssscsssssscscssscsscssssssssssccccccsccsccccsscccccssccccccccsssscsccsssscscccsccssccccssccssccscscssccscccccscscsccscccscccc" />
  </g>
</svg>
